<svg xmlns="http://www.w3.org/2000/svg" viewBox="0 0 960 520" width="960" height="520" role="img"><rect width="960" height="520" fill="#f1f5f9"/><rect x="40" y="40" width="880" height="440" rx="12" fill="#ffffff" stroke="#cbd5e1" stroke-width="2"/><rect x="80" y="250" width="176" height="150" rx="8" fill="#e8f1f6" stroke="#cbd5e1"/><rect x="96" y="266" width="128" height="8" rx="4" fill="#0f6b4c" opacity="0.55"/><text x="168" y="430" text-anchor="middle" font-family="system-ui,sans-serif" font-size="13" fill="#64748b">Dispensing</text><rect x="280" y="100" width="176" height="300" rx="8" fill="#f1f5f9" stroke="#cbd5e1"/><rect x="296" y="116" width="128" height="8" rx="4" fill="#0f6b4c" opacity="0.55"/><text x="368" y="430" text-anchor="middle" font-family="system-ui,sans-serif" font-size="13" fill="#64748b">Compression I</text><rect x="480" y="100" width="176" height="300" rx="8" fill="#e8f1f6" stroke="#cbd5e1"/><rect x="496" y="116" width="128" height="8" rx="4" fill="#0f6b4c" opacity="0.55"/><text x="568" y="430" text-anchor="middle" font-family="system-ui,sans-serif" font-size="13" fill="#64748b">Compression II</text><rect x="680" y="130" width="176" height="270" rx="8" fill="#f1f5f9" stroke="#cbd5e1"/><rect x="696" y="146" width="128" height="8" rx="4" fill="#0f6b4c" opacity="0.55"/><text x="768" y="430" text-anchor="middle" font-family="system-ui,sans-serif" font-size="13" fill="#64748b">Packing</text><path d="M60 400 H900" stroke="#cbd5e1" stroke-width="2"/><text x="60" y="76" font-family="system-ui,sans-serif" font-size="15" font-weight="600" fill="#0b3b5a">Illustrative layout — not a photograph</text></svg>