<svg xmlns="http://www.w3.org/2000/svg" viewBox="0 0 960 520" width="960" height="520" role="img"><rect width="960" height="520" fill="#f1f5f9"/><rect x="40" y="40" width="880" height="440" rx="12" fill="#ffffff" stroke="#cbd5e1" stroke-width="2"/><rect x="80" y="330" width="840" height="14" rx="4" fill="#cbd5e1" opacity="0.6"/><rect x="110" y="240" width="86" height="90" rx="6" fill="#e8f1f6" stroke="#cbd5e1"/><rect x="124" y="254" width="58" height="8" rx="4" fill="#0b3b5a" opacity="0.5"/><circle cx="153" cy="292" r="14" fill="#0f6b4c" opacity="0.25"/><rect x="245" y="190" width="86" height="140" rx="6" fill="#e8f1f6" stroke="#cbd5e1"/><rect x="259" y="204" width="58" height="8" rx="4" fill="#0b3b5a" opacity="0.5"/><circle cx="288" cy="242" r="14" fill="#0f6b4c" opacity="0.25"/><rect x="380" y="220" width="86" height="110" rx="6" fill="#e8f1f6" stroke="#cbd5e1"/><rect x="394" y="234" width="58" height="8" rx="4" fill="#0b3b5a" opacity="0.5"/><circle cx="423" cy="272" r="14" fill="#0f6b4c" opacity="0.25"/><rect x="515" y="160" width="86" height="170" rx="6" fill="#e8f1f6" stroke="#cbd5e1"/><rect x="529" y="174" width="58" height="8" rx="4" fill="#0b3b5a" opacity="0.5"/><circle cx="558" cy="212" r="14" fill="#0f6b4c" opacity="0.25"/><rect x="650" y="210" width="86" height="120" rx="6" fill="#e8f1f6" stroke="#cbd5e1"/><rect x="664" y="224" width="58" height="8" rx="4" fill="#0b3b5a" opacity="0.5"/><circle cx="693" cy="262" r="14" fill="#0f6b4c" opacity="0.25"/><rect x="785" y="180" width="86" height="150" rx="6" fill="#e8f1f6" stroke="#cbd5e1"/><rect x="799" y="194" width="58" height="8" rx="4" fill="#0b3b5a" opacity="0.5"/><circle cx="828" cy="232" r="14" fill="#0f6b4c" opacity="0.25"/><text x="60" y="76" font-family="system-ui,sans-serif" font-size="15" font-weight="600" fill="#0b3b5a">Illustrative laboratory schematic — not a photograph</text><text x="60" y="420" font-family="ui-monospace,monospace" font-size="12" fill="#64748b">HPLC · FTIR · Dissolution · Stability</text></svg>